<?xml version="1.0" encoding="UTF-8"?>
<!DOCTYPE svg PUBLIC "-//W3C//DTD SVG 1.1//EN" "http://www.w3.org/Graphics/SVG/1.1/DTD/svg11.dtd">
<svg xmlns="http://www.w3.org/2000/svg" version="1.1" width="300px" height="300px" style="shape-rendering:geometricPrecision; text-rendering:geometricPrecision; image-rendering:optimizeQuality; fill-rule:evenodd; clip-rule:evenodd" xmlns:xlink="http://www.w3.org/1999/xlink">
<g><path style="opacity:0.9" fill="#000000" d="M 146.5,3.5 C 148.792,3.24358 150.959,3.57692 153,4.5C 156.995,41.4362 160.161,78.4362 162.5,115.5C 153.833,115.5 145.167,115.5 136.5,115.5C 138.734,78.0214 142.067,40.6881 146.5,3.5 Z"/></g>
<g><path style="opacity:0.913" fill="#000000" d="M 69.5,31.5 C 72.9705,30.8748 75.8038,31.8748 78,34.5C 89.3333,49.1667 100.667,63.8333 112,78.5C 110.314,87.9117 107.98,97.245 105,106.5C 104.333,108.5 104.333,110.5 105,112.5C 119.691,124.025 134.524,135.358 149.5,146.5C 164.476,135.358 179.309,124.025 194,112.5C 194.667,110.5 194.667,108.5 194,106.5C 191.02,97.245 188.686,87.9117 187,78.5C 199.046,62.9093 211.213,47.4093 223.5,32C 225.5,31.3333 227.5,31.3333 229.5,32C 252.77,45.845 258.27,64.6783 246,88.5C 238.742,99.0927 229.575,107.593 218.5,114C 216.643,115.182 215.643,116.849 215.5,119C 226.094,154.2 236.927,189.366 248,224.5C 249.197,228.476 249.864,232.476 250,236.5C 244.583,235.691 239.083,235.191 233.5,235C 233,234.5 232.5,234 232,233.5C 228.064,218.969 223.564,204.635 218.5,190.5C 208.846,204.641 199.846,219.141 191.5,234C 195.812,242.988 200.979,251.488 207,259.5C 208.301,261.365 208.635,263.365 208,265.5C 195.769,275.364 183.269,284.864 170.5,294C 156.5,294.667 142.5,294.667 128.5,294C 115.731,284.864 103.231,275.364 91,265.5C 90.3653,263.365 90.6986,261.365 92,259.5C 98.0212,251.488 103.188,242.988 107.5,234C 99.1538,219.141 90.1538,204.641 80.5,190.5C 75.4289,204.645 70.9289,218.978 67,233.5C 66.5,234 66,234.5 65.5,235C 59.9171,235.191 54.4171,235.691 49,236.5C 49.136,232.476 49.8027,228.476 51,224.5C 62.0729,189.366 72.9062,154.2 83.5,119C 83.3569,116.849 82.3569,115.182 80.5,114C 65.0862,105.255 53.9195,92.755 47,76.5C 44.501,64.6587 46.8343,53.9921 54,44.5C 59.0646,39.926 64.2312,35.5926 69.5,31.5 Z M 69.5,52.5 C 77.7923,61.3057 85.6257,70.639 93,80.5C 92.774,87.5143 91.1073,94.181 88,100.5C 81.6979,95.1991 75.6979,89.5325 70,83.5C 62.891,73.2263 62.7243,62.893 69.5,52.5 Z M 227.5,52.5 C 229.017,52.5106 230.184,53.1772 231,54.5C 236.132,64.5802 235.465,74.2469 229,83.5C 223.302,89.5325 217.302,95.1991 211,100.5C 207.893,94.181 206.226,87.5143 206,80.5C 213.427,71.2869 220.593,61.9536 227.5,52.5 Z M 97.5,128.5 C 98.552,128.351 99.552,128.517 100.5,129C 114.833,140 129.167,151 143.5,162C 147.5,165.333 151.5,165.333 155.5,162C 169.833,151 184.167,140 198.5,129C 199.448,128.517 200.448,128.351 201.5,128.5C 204.756,141.935 208.422,155.269 212.5,168.5C 197.469,191.7 182.636,215.033 168,238.5C 165.129,252.521 162.129,266.521 159,280.5C 152.667,281.833 146.333,281.833 140,280.5C 136.871,266.521 133.871,252.521 131,238.5C 116.364,215.033 101.531,191.7 86.5,168.5C 90.5777,155.269 94.2444,141.935 97.5,128.5 Z M 118.5,265.5 C 111.424,263.419 110.59,259.752 116,254.5C 117.31,258.07 118.143,261.737 118.5,265.5 Z M 180.5,265.5 C 180.857,261.737 181.69,258.07 183,254.5C 188.41,259.752 187.576,263.419 180.5,265.5 Z"/></g>
</svg>
