<?xml version="1.0" standalone="no"?>
<!DOCTYPE svg PUBLIC "-//W3C//DTD SVG 20010904//EN"
 "http://www.w3.org/TR/2001/REC-SVG-20010904/DTD/svg10.dtd">
<svg version="1.0" xmlns="http://www.w3.org/2000/svg"
 width="203.000000pt" height="81.000000pt" viewBox="0 0 203.000000 81.000000"
 preserveAspectRatio="xMidYMid meet">

<g transform="translate(0.000000,81.000000) scale(0.100000,-0.100000)"
fill="#000000" stroke="none">
<path d="M175 743 c-28 -100 -41 -121 -92 -146 -55 -26 -88 -71 -63 -87 8 -6
32 -7 53 -4 l38 6 -27 -69 c-68 -177 -81 -247 -51 -272 24 -19 72 -23 128 -12
72 15 87 25 73 48 -9 14 -25 18 -70 18 -53 0 -59 2 -62 21 -2 12 17 77 42 145
26 67 46 128 46 135 0 6 21 15 48 19 58 9 72 19 72 56 0 26 -3 29 -34 29 -19
0 -37 4 -40 9 -3 5 1 29 10 54 8 25 14 58 12 74 -2 23 -8 29 -35 31 -31 3 -33
2 -48 -55z"/>
<path d="M1453 788 c-6 -7 -16 -36 -22 -64 -18 -74 -43 -110 -96 -133 -78 -34
-80 -99 -3 -87 21 4 38 5 38 2 0 -2 -18 -52 -40 -111 -68 -180 -65 -228 14
-240 60 -9 156 18 156 44 0 24 -19 31 -87 31 l-55 0 7 33 c4 17 25 82 47 142
21 61 41 115 43 122 2 7 21 15 42 18 45 7 63 16 76 37 18 27 1 48 -39 48 l-37
0 8 38 c4 20 8 57 9 82 1 41 -1 45 -25 48 -14 2 -30 -3 -36 -10z"/>
<path d="M863 645 c-43 -19 -69 -64 -88 -155 -9 -41 -34 -138 -55 -215 -60
-217 -62 -226 -55 -252 5 -21 11 -24 43 -21 36 3 37 4 34 39 -3 47 53 227 81
256 11 13 27 23 34 23 8 0 65 -23 127 -50 120 -53 191 -65 216 -35 25 30 2 54
-73 76 -90 26 -147 55 -147 73 0 8 21 26 48 41 107 63 180 143 167 185 -12 38
-55 50 -182 50 -79 -1 -129 -5 -150 -15z m198 -45 c10 -6 19 -16 19 -23 0 -30
-154 -147 -193 -147 -32 0 -37 69 -8 116 28 46 136 78 182 54z"/>
<path d="M1630 635 c-10 -12 -10 -21 -2 -40 11 -24 14 -25 124 -25 110 0 154
-9 133 -28 -6 -5 -66 -49 -135 -97 -155 -110 -170 -123 -170 -151 0 -42 21
-47 195 -49 123 -2 169 1 182 11 34 24 -4 43 -112 57 -56 7 -100 17 -102 24
-4 11 27 35 177 138 36 25 75 52 88 60 14 11 22 26 22 46 0 26 -6 33 -42 49
-36 17 -67 20 -194 20 -124 0 -154 -3 -164 -15z"/>
<path d="M490 611 c-46 -14 -107 -50 -138 -80 -64 -65 -91 -169 -56 -220 24
-34 91 -60 154 -61 32 0 63 -7 74 -15 30 -22 98 -19 130 6 35 28 33 70 -4 79
-33 8 -35 24 -15 122 36 175 35 178 -59 177 -33 0 -72 -4 -86 -8z m41 -102
c18 -18 20 -28 14 -66 -4 -25 -11 -56 -17 -68 -18 -40 -86 -58 -129 -35 -54
29 24 190 92 190 11 0 28 -9 40 -21z"/>
</g>
</svg>
